# 3ds Max Wavefront OBJ Exporter v0.97b - (c)2007 guruware
# File Created: 26.11.2017 15:28:35

mtllib big_door.mtl

#
# object Door1
#

v  -3.6687 -20.7919 0.1503
v  -3.6687 -20.7919 -0.1504
v  8.8502 -20.7919 -0.1504
v  8.8502 -20.7919 0.1503
v  -6.0532 -15.6214 0.1503
v  -5.9579 -17.4828 0.1503
v  -5.6717 -18.9305 0.1503
v  -5.1948 -19.9646 0.1503
v  -4.5271 -20.5851 0.1503
v  8.8502 -9.2928 0.1503
v  -6.0532 -9.2928 0.1503
v  -4.5271 -20.5851 -0.1504
v  -5.1948 -19.9646 -0.1504
v  -5.6717 -18.9305 -0.1504
v  -5.9579 -17.4828 -0.1504
v  -6.0532 -15.6214 -0.1504
v  -6.0532 -9.2928 -0.1504
v  8.8502 -9.2928 -0.1504
v  8.8502 11.5242 0.1503
v  -3.6687 11.5242 0.1503
v  -4.5271 11.3173 0.1503
v  -5.1948 10.6969 0.1503
v  -5.6717 9.6628 0.1503
v  -5.9579 8.2150 0.1503
v  -6.0532 6.3536 0.1503
v  -4.1701 -1.0783 0.1503
v  -4.1701 1.2863 0.1503
v  -4.1701 7.1326 0.1503
v  -4.1345 7.8281 0.1503
v  -4.0276 8.3690 0.1503
v  -3.8494 8.7554 0.1503
v  -3.5999 8.9872 0.1503
v  -3.2792 9.0645 0.1503
v  1.3985 9.0645 0.1503
v  1.3985 9.0645 -0.1504
v  1.3985 -3.0103 -0.1504
v  1.3985 -3.0103 0.1503
v  -3.2792 -3.0103 0.1503
v  6.0762 9.0645 0.1503
v  6.3969 8.9872 0.1503
v  6.6464 8.7554 0.1503
v  6.8246 8.3690 0.1503
v  6.9315 7.8281 0.1503
v  6.9671 7.1326 0.1503
v  6.9671 1.2863 0.1503
v  6.9671 -1.0783 0.1503
v  6.9315 -1.7738 0.1503
v  6.8246 -2.3148 0.1503
v  6.6464 -2.7012 0.1503
v  6.3969 -2.9330 0.1503
v  6.0762 -3.0103 0.1503
v  -3.5999 -2.9330 0.1503
v  -3.8494 -2.7012 0.1503
v  -4.0276 -2.3148 0.1503
v  -4.1345 -1.7738 0.1503
v  -6.0532 6.3536 -0.1504
v  -4.1701 -1.0783 -0.1504
v  -4.1345 -1.7738 -0.1504
v  -4.0276 -2.3148 -0.1504
v  -3.8494 -2.7012 -0.1504
v  -3.5999 -2.9330 -0.1504
v  -3.2792 -3.0103 -0.1504
v  6.0762 -3.0103 -0.1504
v  6.3969 -2.9330 -0.1504
v  6.6464 -2.7012 -0.1504
v  6.8246 -2.3148 -0.1504
v  6.9315 -1.7738 -0.1504
v  6.9671 -1.0783 -0.1504
v  6.9671 1.2863 -0.1504
v  6.9671 7.1326 -0.1504
v  6.9315 7.8281 -0.1504
v  6.8246 8.3690 -0.1504
v  6.6464 8.7554 -0.1504
v  6.3969 8.9872 -0.1504
v  6.0762 9.0645 -0.1504
v  -3.2792 9.0645 -0.1504
v  -3.5999 8.9872 -0.1504
v  -3.8494 8.7554 -0.1504
v  -4.0276 8.3690 -0.1504
v  -4.1345 7.8281 -0.1504
v  -4.1701 7.1326 -0.1504
v  -4.1701 1.2863 -0.1504
v  -5.9579 8.2150 -0.1504
v  -5.6717 9.6628 -0.1504
v  -5.1948 10.6969 -0.1504
v  -4.5271 11.3173 -0.1504
v  -3.6687 11.5242 -0.1504
v  8.8502 11.5242 -0.1504
v  -3.2792 -3.0103 0.4260
v  -3.2792 -3.0103 -0.2711
v  1.3985 -3.0103 -0.2711
v  1.3985 -3.0103 0.4260
v  -3.2792 9.0645 0.4260
v  1.3985 9.0645 0.4260
v  1.3985 9.0645 -0.2711
v  -3.2792 9.0645 -0.2711
v  -4.1701 -1.0783 0.4260
v  -4.1345 -1.7739 0.4260
v  -4.0276 -2.3148 0.4260
v  -3.8494 -2.7012 0.4260
v  -3.5999 -2.9330 0.4260
v  1.3985 1.2863 -0.2711
v  1.3985 1.2863 0.4260
v  -4.1701 1.2863 0.4260
v  -4.1701 -1.0783 -0.2711
v  -4.1701 1.2863 -0.2711
v  -3.5999 -2.9330 -0.2711
v  -3.5999 8.9872 -0.2711
v  -3.5999 8.9872 0.4260
v  -3.8494 -2.7012 -0.2711
v  -4.0276 -2.3148 -0.2711
v  -4.1345 -1.7739 -0.2711
v  -3.8494 8.7554 -0.2711
v  -3.8494 8.7554 0.4260
v  -4.0276 8.3690 -0.2711
v  -4.0276 8.3690 0.4260
v  -4.1345 7.8281 -0.2711
v  -4.1345 7.8281 0.4260
v  -4.1701 7.1325 -0.2711
v  -4.1701 7.1325 0.4260
v  6.0762 -3.0103 0.3745
v  1.3985 -3.0103 0.3745
v  1.3985 -3.0103 -0.3226
v  6.0762 -3.0103 -0.3226
v  6.0762 9.0645 0.3745
v  6.0762 9.0645 -0.3226
v  1.3985 9.0645 -0.3226
v  1.3985 9.0645 0.3745
v  6.9671 -1.0783 0.3745
v  6.9671 1.2863 0.3745
v  1.3985 1.2863 0.3745
v  1.3985 1.2863 -0.3226
v  6.3969 -2.9330 0.3745
v  6.6464 -2.7012 0.3745
v  6.8246 -2.3148 0.3745
v  6.9315 -1.7738 0.3745
v  6.9671 -1.0783 -0.3226
v  6.9671 1.2863 -0.3226
v  6.3969 -2.9330 -0.3226
v  6.3969 8.9872 0.3745
v  6.3969 8.9872 -0.3226
v  6.6464 -2.7012 -0.3226
v  6.8246 -2.3148 -0.3226
v  6.9315 -1.7738 -0.3226
v  6.6464 8.7554 0.3745
v  6.6464 8.7554 -0.3226
v  6.8246 8.3690 0.3745
v  6.8246 8.3690 -0.3226
v  6.9315 7.8281 0.3745
v  6.9315 7.8281 -0.3226
v  6.9671 7.1326 0.3745
v  6.9671 7.1326 -0.3226
# 152 vertices

vn -0.0553 -0.9985 -0.0000
vn 0.0000 -1.0000 -0.0000
vn -0.0000 0.0000 1.0000
vn -0.0000 -0.0000 1.0000
vn -0.2549 -0.9670 -0.0000
vn 0.0000 0.0000 -1.0000
vn 0.0000 -0.0000 -1.0000
vn 1.0000 0.0000 0.0000
vn -0.9985 -0.0553 -0.0000
vn -1.0000 0.0000 -0.0000
vn -0.9670 -0.2549 -0.0000
vn -0.8281 -0.5606 -0.0000
vn -0.5606 -0.8281 -0.0000
vn 0.0000 0.0000 1.0000
vn 0.0000 -0.0000 1.0000
vn -0.3162 0.0000 0.9487
vn -0.3162 -0.0000 -0.9487
vn -0.7071 -0.0000 0.7071
vn -0.7071 0.0000 -0.7071
vn 0.0058 0.0038 1.0000
vn 0.3104 0.0102 0.9505
vn 0.3162 0.0000 -0.9487
vn 0.4420 -0.3533 0.8246
vn 0.4358 -0.3661 -0.8223
vn -0.0000 -0.0000 -1.0000
vn -0.0000 0.0000 -1.0000
vn -0.9985 0.0553 -0.0000
vn -0.0553 0.9985 -0.0000
vn 0.0000 1.0000 -0.0000
vn -0.2549 0.9670 -0.0000
vn -0.5606 0.8281 -0.0000
vn -0.8281 0.5606 -0.0000
vn -0.9670 0.2549 -0.0000
vn 0.0553 0.9985 0.0000
vn 0.2549 0.9670 0.0000
vn 0.5606 0.8281 0.0000
vn 0.8281 0.5606 0.0000
vn 0.0553 -0.9985 0.0000
vn 0.9670 0.2549 0.0000
vn 0.2549 -0.9670 0.0000
vn 0.9985 0.0553 0.0000
vn 0.5606 -0.8281 0.0000
vn 0.8281 -0.5606 0.0000
vn 0.9985 -0.0553 0.0000
vn 0.9670 -0.2549 0.0000
vn -0.0553 -0.9985 0.0000
vn -0.0553 0.9985 0.0000
vn 0.7071 0.0000 0.7071
vn 0.7071 0.0000 -0.7071
vn 0.7071 -0.0000 -0.7071
vn -0.5606 -0.8281 0.0000
vn -0.8281 -0.5606 0.0000
vn -0.9670 -0.2549 0.0000
vn -0.5606 0.8281 0.0000
vn -0.8281 0.5606 0.0000
vn -0.9670 0.2549 0.0000
vn 0.7071 -0.0000 0.7071
vn -0.0000 -0.0001 1.0000
vn 0.0000 0.0001 -1.0000
vn 0.0553 -0.9985 -0.0000
vn 0.0553 0.9985 -0.0000
vn -0.7071 0.0000 0.7071
vn -0.7071 -0.0000 -0.7071
vn -0.0000 0.0001 1.0000
vn 0.9985 -0.0553 -0.0000
vn 1.0000 0.0000 -0.0000
vn 0.2549 -0.9670 -0.0000
vn 0.2549 0.9670 -0.0000
vn 0.5606 -0.8281 -0.0000
vn 0.8281 -0.5606 -0.0000
vn 0.9670 -0.2549 -0.0000
vn 0.5606 0.8281 -0.0000
vn 0.8281 0.5606 -0.0000
vn 0.9670 0.2549 -0.0000
vn 0.9985 0.0553 -0.0000
# 75 vertex normals

vt 0.9200 0.0000 0.0000
vt 0.9200 1.0000 0.0000
vt 0.5000 1.0000 0.0000
vt 0.5000 0.0000 0.0000
vt 0.0000 0.1600 0.0000
vt 0.0032 0.1024 0.0000
vt 0.0128 0.0576 0.0000
vt 0.0288 0.0256 0.0000
vt 0.0512 0.0064 0.0000
vt 0.0800 0.0000 0.0000
vt 0.5000 0.3558 0.0000
vt 0.0000 0.3558 0.0000
vt 1.0000 -0.3672 0.0000
vt 1.0000 -0.2618 0.0000
vt 0.0000 -0.2618 0.0000
vt 0.0000 -0.3672 0.0000
vt 0.9488 0.0064 0.0000
vt 0.9712 0.0256 0.0000
vt 0.9872 0.0576 0.0000
vt 0.9968 0.1024 0.0000
vt 1.0000 0.1600 0.0000
vt 1.0000 0.3558 0.0000
vt 1.0000 -0.1563 0.0000
vt 0.0000 0.0546 0.0000
vt 0.0000 -0.0509 0.0000
vt 1.0000 0.0546 0.0000
vt 1.0000 -0.0509 0.0000
vt 0.0000 -0.1563 0.0000
vt 0.0800 1.0000 0.0000
vt 0.0512 0.9936 0.0000
vt 0.0288 0.9744 0.0000
vt 0.0128 0.9424 0.0000
vt 0.0032 0.8976 0.0000
vt 0.0000 0.8400 0.0000
vt 0.0632 0.6100 0.0000
vt 0.0632 0.6832 0.0000
vt 0.0632 0.8641 0.0000
vt 0.0644 0.8856 0.0000
vt 0.0680 0.9024 0.0000
vt 0.0739 0.9143 0.0000
vt 0.0823 0.9215 0.0000
vt 0.0931 0.9239 0.0000
vt 0.2500 0.9239 0.0000
vt 0.2500 0.6832 0.0000
vt 0.2500 0.5502 0.0000
vt 0.0931 0.5502 0.0000
vt 0.4069 0.9239 0.0000
vt 0.4177 0.9215 0.0000
vt 0.4261 0.9143 0.0000
vt 0.4320 0.9024 0.0000
vt 0.4356 0.8856 0.0000
vt 0.4368 0.8641 0.0000
vt 0.4368 0.6832 0.0000
vt 0.4368 0.6100 0.0000
vt 0.4356 0.5885 0.0000
vt 0.4320 0.5718 0.0000
vt 0.4261 0.5598 0.0000
vt 0.4177 0.5526 0.0000
vt 0.4069 0.5502 0.0000
vt 0.0823 0.5526 0.0000
vt 0.0739 0.5598 0.0000
vt 0.0680 0.5718 0.0000
vt 0.0644 0.5885 0.0000
vt 1.0000 0.8400 0.0000
vt 0.9368 0.6100 0.0000
vt 0.9356 0.5885 0.0000
vt 0.9320 0.5718 0.0000
vt 0.9261 0.5598 0.0000
vt 0.9177 0.5526 0.0000
vt 0.9069 0.5502 0.0000
vt 0.7500 0.5502 0.0000
vt 0.5931 0.5502 0.0000
vt 0.5823 0.5526 0.0000
vt 0.5739 0.5598 0.0000
vt 0.5680 0.5718 0.0000
vt 0.5644 0.5885 0.0000
vt 0.5632 0.6100 0.0000
vt 0.5632 0.6832 0.0000
vt 0.5632 0.8641 0.0000
vt 0.5644 0.8856 0.0000
vt 0.5680 0.9024 0.0000
vt 0.5739 0.9143 0.0000
vt 0.5823 0.9215 0.0000
vt 0.5931 0.9239 0.0000
vt 0.7500 0.9239 0.0000
vt 0.9069 0.9239 0.0000
vt 0.9177 0.9215 0.0000
vt 0.9261 0.9143 0.0000
vt 0.9320 0.9024 0.0000
vt 0.9356 0.8856 0.0000
vt 0.9368 0.8641 0.0000
vt 0.9368 0.6832 0.0000
vt 0.9968 0.8976 0.0000
vt 0.9872 0.9424 0.0000
vt 0.9712 0.9744 0.0000
vt 0.9488 0.9936 0.0000
vt -0.0000 1.3672 0.0000
vt -0.0000 1.2618 0.0000
vt 1.0000 1.2618 0.0000
vt 1.0000 1.3672 0.0000
vt -0.0000 1.1563 0.0000
vt 1.0000 1.1563 0.0000
vt -0.0000 1.0509 0.0000
vt 1.0000 1.0509 0.0000
vt -0.0000 0.9454 0.0000
vt 1.0000 0.9454 0.0000
vt 0.9200 0.2844 0.0000
vt 0.5000 0.2844 0.0000
vt 0.5000 0.7157 0.0000
vt 0.9200 0.7157 0.0000
vt 0.7156 -0.2618 0.0000
vt 0.7156 -0.3672 0.0000
vt 0.2843 -0.3672 0.0000
vt 0.2843 -0.2618 0.0000
vt 0.7156 -0.1563 0.0000
vt 0.2843 -0.1563 0.0000
vt 0.7156 -0.0509 0.0000
vt 0.2843 -0.0509 0.0000
vt 0.0800 0.2844 0.0000
vt 0.0800 0.7157 0.0000
vt 0.7156 0.0546 0.0000
vt 0.2843 0.0546 0.0000
vt 0.2843 1.2618 0.0000
vt 0.2843 1.3672 0.0000
vt 0.7156 1.3672 0.0000
vt 0.7156 1.2618 0.0000
vt 0.7156 0.1600 0.0000
vt 0.2843 0.1600 0.0000
vt 0.2843 1.1563 0.0000
vt 0.7156 1.1563 0.0000
vt 0.2843 0.3558 0.0000
vt 0.7156 0.3558 0.0000
vt 0.2843 1.0509 0.0000
vt 0.7156 1.0509 0.0000
vt 0.7156 0.8400 0.0000
vt 0.2843 0.8400 0.0000
vt 0.2843 0.9454 0.0000
vt 0.7156 0.9454 0.0000
# 138 texture coords

g Door1
usemtl White___ext__2_
s 1
f 1/1/1 2/2/1 3/3/2 4/4/2 
usemtl Metal___inside_doors__10_
s 2
f 5/5/3 6/6/4 7/7/3 8/8/3 9/9/3 1/10/4 4/4/3 10/11/4 11/12/3 
usemtl White___ext__2_
s 1
f 1/13/1 9/14/5 12/15/5 2/16/1 
s 2
f 3/4/6 2/1/6 12/17/6 13/18/6 14/19/6 15/20/6 16/21/6 17/22/7 18/11/6 
s 8
f 3/23/8 18/24/8 10/25/8 4/14/8 
s 1
f 16/5/9 5/21/9 11/22/10 17/12/10 
f 6/26/11 5/21/9 16/5/9 15/24/11 
f 7/27/12 6/26/11 15/24/11 14/25/12 
f 8/23/13 7/27/12 14/25/12 13/28/13 
f 9/14/5 8/23/13 13/28/13 12/15/5 
usemtl Metal___inside_doors__10_
s 194
f 10/11/4 19/3/14 20/29/3 21/30/3 22/31/3 23/32/4 24/33/3 25/34/3 26/35/3 27/36/3 28/37/3 29/38/3 30/39/3 31/40/3 32/41/14 33/42/15 34/43/16 35/43/17 36/44/18 37/45/19 38/46/20 37/45/21 36/45/22 35/43/23 34/43/24 39/47/3 40/48/3 41/49/14 42/50/14 43/51/14 44/52/14 45/53/8 46/54/15 47/55/15 48/56/15 49/57/4 50/58/4 51/59/4 37/45/21 38/46/20 52/60/15 53/61/3 54/62/3 55/63/3 26/35/3 25/34/3 11/12/3 
usemtl Green___ext__3_
s 2
f 17/22/7 56/64/6 57/65/6 58/66/6 59/67/6 60/68/6 61/69/25 62/70/25 36/71/22 63/72/6 64/73/6 65/74/6 66/75/26 67/76/26 68/77/26 69/78/26 70/79/25 71/80/25 72/81/25 73/82/25 74/83/7 75/84/7 35/85/23 36/71/22 62/70/25 36/71/18 35/85/17 76/86/26 77/87/25 78/88/6 79/89/6 80/90/6 81/91/6 82/92/6 57/65/6 56/64/6 83/93/6 84/94/6 85/95/6 86/96/6 87/2/7 88/3/25 18/11/6 
s 4
f 18/24/8 88/28/8 19/15/8 10/25/8 
s 1
f 11/22/10 25/64/27 56/34/27 17/12/10 
f 20/10/28 19/4/29 88/3/29 87/29/28 
f 87/97/28 86/98/30 21/99/30 20/100/28 
f 86/98/30 85/101/31 22/102/31 21/99/30 
f 85/101/31 84/103/32 23/104/32 22/102/31 
f 84/103/32 83/105/33 24/106/33 23/104/32 
f 83/105/33 56/34/27 25/64/27 24/106/33 
usemtl Material__99
s 16
f 38/107/34 37/108/29 36/109/29 62/110/34 
f 52/111/35 38/112/34 62/113/34 61/114/35 
f 53/115/36 52/111/35 61/114/35 60/116/36 
f 54/117/37 53/115/36 60/116/36 59/118/37 
f 34/108/2 33/119/38 76/120/38 35/109/2 
f 55/121/39 54/117/37 59/118/37 58/122/39 
f 77/123/40 76/124/38 33/125/38 32/126/40 
f 26/127/41 55/121/39 58/122/39 57/128/41 
f 78/129/42 77/123/40 32/126/40 31/130/42 
f 57/128/41 82/131/8 27/132/8 26/127/41 
f 79/133/43 78/129/42 31/130/42 30/134/43 
f 28/135/44 27/132/8 82/131/8 81/136/44 
f 80/137/45 79/133/43 30/134/43 29/138/45 
f 81/136/44 80/137/45 29/138/45 28/135/44 
f 37/108/29 51/107/28 63/110/28 36/109/29 
f 51/112/28 50/111/30 64/114/30 63/113/28 
f 50/111/30 49/115/31 65/116/31 64/114/30 
f 39/119/1 34/108/2 35/109/2 75/120/1 
f 49/115/31 48/117/32 66/118/32 65/116/31 
f 75/124/1 74/123/5 40/126/5 39/125/1 
f 48/117/32 47/121/33 67/122/33 66/118/32 
f 74/123/5 73/129/13 41/130/13 40/126/5 
f 47/121/33 46/127/27 68/128/27 67/122/33 
f 73/129/13 72/133/12 42/134/12 41/130/13 
f 69/131/10 68/128/27 46/127/27 45/132/10 
f 72/133/12 71/137/11 43/138/11 42/134/12 
f 45/132/10 44/135/9 70/136/9 69/131/10 
f 71/137/11 70/136/9 44/135/9 43/138/11 
usemtl Glass__9_
f 89/1/46 90/2/1 91/3/2 92/4/2 
f 93/10/28 94/4/29 95/3/29 96/29/47 
s 160
f 97/5/3 98/6/3 99/7/14 100/8/3 101/9/4 89/10/3 92/4/48 91/4/49 102/11/50 103/11/48 104/12/4 
s 16
f 105/5/9 97/21/9 104/22/10 106/12/10 
f 89/13/46 101/14/5 107/15/5 90/16/1 
f 96/97/47 108/98/30 109/99/30 93/100/28 
f 101/14/5 100/23/13 110/28/51 107/15/5 
f 100/23/13 99/27/52 111/25/52 110/28/51 
f 99/27/52 98/26/53 112/24/11 111/25/52 
f 98/26/53 97/21/9 105/5/9 112/24/11 
f 108/98/30 113/101/31 114/102/54 109/99/30 
f 113/101/31 115/103/55 116/104/55 114/102/54 
f 115/103/55 117/105/56 118/106/33 116/104/55 
f 117/105/56 119/34/27 120/64/27 118/106/33 
s 32
f 91/4/49 90/1/7 107/17/6 110/18/7 111/19/25 112/20/7 105/21/6 106/22/7 102/11/50 
s 96
f 103/11/48 102/11/50 95/3/49 94/3/57 93/29/58 109/30/4 114/31/3 116/32/15 118/33/3 120/34/4 104/12/4 
s 16
f 104/22/10 120/64/27 119/34/27 106/12/10 
s 32
f 106/22/7 119/64/6 117/93/7 115/94/26 113/95/7 108/96/6 96/2/59 95/3/49 102/11/50 
s 16
f 121/1/60 122/4/2 123/3/2 124/2/60 
f 125/10/61 126/29/61 127/3/29 128/4/29 
s 160
f 129/5/3 130/12/14 131/11/62 132/11/63 123/4/19 122/4/62 121/10/64 133/9/3 134/8/15 135/7/14 136/6/15 
s 16
f 137/5/65 138/12/66 130/22/66 129/21/65 
f 121/13/60 124/16/60 139/15/67 133/14/67 
f 126/97/61 125/100/61 140/99/68 141/98/68 
f 133/14/67 139/15/67 142/28/69 134/23/69 
f 134/23/69 142/28/69 143/25/43 135/27/70 
f 135/27/70 143/25/43 144/24/71 136/26/45 
f 136/26/45 144/24/71 137/5/65 129/21/65 
f 141/98/68 140/99/68 145/102/72 146/101/72 
f 146/101/72 145/102/72 147/104/37 148/103/73 
f 148/103/73 147/104/37 149/106/74 150/105/39 
f 150/105/39 149/106/74 151/64/75 152/34/75 
s 32
f 123/4/19 132/11/63 138/22/26 137/21/25 144/20/26 143/19/7 142/18/26 139/17/25 124/1/25 
s 96
f 131/11/62 130/12/14 151/34/3 149/33/15 147/32/4 145/31/15 140/30/14 125/29/15 128/3/18 127/3/19 132/11/63 
s 16
f 130/22/66 138/12/66 152/34/75 151/64/75 
s 32
f 138/22/26 132/11/63 127/3/19 126/2/26 141/96/25 146/95/26 148/94/6 150/93/6 152/64/25 
# 84 polygons

