# 3ds Max Wavefront OBJ Exporter v0.97b - (c)2007 guruware
# File Created: 26.11.2017 15:30:45

mtllib small_door.mtl

#
# object Door_small
#

v  -76.2346 3.5013 7.8207
v  -76.5352 3.5013 7.8207
v  -76.5352 12.0004 7.8207
v  -76.2346 12.0004 7.8207
v  -76.2346 5.1590 22.1766
v  -76.2346 3.5017 22.1766
v  -76.2346 2.4217 22.0905
v  -76.2346 1.5817 21.8321
v  -76.2346 0.9817 21.4014
v  -76.2346 0.6217 20.7985
v  -76.2346 0.5016 20.0287
v  -76.2346 0.5016 9.9741
v  -76.2346 0.6216 9.1988
v  -76.2346 0.9817 8.5959
v  -76.2346 1.5817 8.1652
v  -76.2346 2.4217 7.9068
v  -76.2346 12.0004 22.1766
v  -76.5352 2.4217 7.9068
v  -76.5352 1.5817 8.1652
v  -76.5352 0.9817 8.5959
v  -76.5352 0.6216 9.1988
v  -76.5352 0.5016 9.9741
v  -76.5352 0.5016 20.0287
v  -76.5352 0.6217 20.7985
v  -76.5352 0.9817 21.4014
v  -76.5352 1.5817 21.8321
v  -76.5352 2.4217 22.0905
v  -76.5352 3.5017 22.1766
v  -76.5352 5.1590 22.1766
v  -76.5352 12.0004 22.1766
v  -76.5352 27.6468 7.8207
v  -76.2346 27.6468 7.8207
v  -76.2346 29.8203 7.8208
v  -76.2346 30.8990 7.9068
v  -76.2346 31.7390 8.1652
v  -76.2346 32.3390 8.5959
v  -76.2346 32.6990 9.1989
v  -76.2346 32.8190 9.9741
v  -76.2346 32.8177 20.0287
v  -76.2346 32.6990 20.7984
v  -76.2346 32.3390 21.4014
v  -76.2346 31.7389 21.8321
v  -76.2346 30.8991 22.0904
v  -76.2346 29.8190 22.1766
v  -76.2346 28.1599 22.1766
v  -76.2346 19.0702 19.9589
v  -76.2346 21.9667 19.9589
v  -76.2346 28.8082 19.9589
v  -76.2346 29.0766 19.9589
v  -76.2346 29.2512 19.9354
v  -76.2346 29.6853 19.9354
v  -76.2346 29.9679 19.8974
v  -76.2346 30.3235 19.7132
v  -76.2346 30.5775 19.4060
v  -76.2346 30.7299 18.9759
v  -76.2346 30.7802 18.4270
v  -76.2346 30.7805 13.9955
v  -76.2346 30.7492 13.6538
v  -76.2346 30.7494 10.9143
v  -76.2346 30.7300 10.7031
v  -76.2346 30.5775 10.2730
v  -76.2346 30.3235 9.9658
v  -76.2346 29.9679 9.7815
v  -76.2346 29.5112 9.7202
v  -76.2346 28.5910 9.7201
v  -76.2346 21.9667 9.7201
v  -76.2346 18.3683 9.7201
v  -76.2346 17.9112 9.7816
v  -76.2346 17.5556 9.9658
v  -76.2346 17.3016 10.2730
v  -76.2346 17.1492 10.7030
v  -76.2346 17.0983 11.2559
v  -76.2346 17.0983 18.4270
v  -76.2346 17.1492 18.9760
v  -76.2346 17.3016 19.4060
v  -76.2346 17.5556 19.7131
v  -76.2346 17.9112 19.8974
v  -76.2346 18.3685 19.9589
v  -76.5352 19.0702 19.9589
v  -76.5352 18.3685 19.9589
v  -76.5352 17.9112 19.8974
v  -76.5352 17.5556 19.7131
v  -76.5352 17.3016 19.4060
v  -76.5352 17.1492 18.9760
v  -76.5352 17.0983 18.4270
v  -76.5352 17.0983 11.2559
v  -76.5352 17.1492 10.7030
v  -76.5352 17.3016 10.2730
v  -76.5352 17.5556 9.9658
v  -76.5352 17.9112 9.7816
v  -76.5352 18.3683 9.7201
v  -76.5352 21.9667 9.7201
v  -76.5352 28.5910 9.7201
v  -76.5352 29.5112 9.7202
v  -76.5352 29.9679 9.7815
v  -76.5352 30.3235 9.9658
v  -76.5352 30.5775 10.2730
v  -76.5352 30.7300 10.7031
v  -76.5352 30.7613 11.0447
v  -76.5352 30.7610 15.4760
v  -76.5352 30.7804 15.6873
v  -76.5352 30.7802 18.4270
v  -76.5352 30.7299 18.9759
v  -76.5352 30.5775 19.4060
v  -76.5352 30.3235 19.7132
v  -76.5352 29.9679 19.8974
v  -76.5352 29.7932 19.9209
v  -76.5352 29.5248 19.9209
v  -76.5352 29.2423 19.9589
v  -76.5352 28.8082 19.9589
v  -76.5352 21.9667 19.9589
v  -76.5352 28.1599 22.1766
v  -76.5352 29.8191 22.1766
v  -76.5352 30.8991 22.0904
v  -76.5352 31.7389 21.8321
v  -76.5352 32.3390 21.4014
v  -76.5352 32.6990 20.7984
v  -76.5352 32.8177 20.0287
v  -76.5352 32.8190 9.9741
v  -76.5352 32.6990 9.1989
v  -76.5352 32.3390 8.5959
v  -76.5352 31.7390 8.1652
v  -76.5352 30.8990 7.9068
v  -76.5352 29.8203 7.8208
v  -75.7478 18.3683 9.7201
v  -75.7478 21.9667 9.7201
v  -75.7478 19.0702 19.9589
v  -75.7478 18.3685 19.9589
v  -75.7478 17.9112 19.8974
v  -75.7478 17.5556 19.7131
v  -75.7478 17.3016 19.4060
v  -75.7478 17.1492 18.9760
v  -75.7478 17.0983 18.4270
v  -75.7478 17.0983 11.2559
v  -75.7478 17.1492 10.7030
v  -75.7478 17.3016 10.2730
v  -75.7478 17.5556 9.9658
v  -75.7478 17.9112 9.7816
v  -75.7478 28.5910 9.7201
v  -75.7478 29.5112 9.7202
v  -75.7478 29.9679 9.7815
v  -75.7478 30.3235 9.9658
v  -75.7478 30.5775 10.2730
v  -75.7478 30.7300 10.7031
v  -75.7478 30.7808 11.2559
v  -75.7478 30.7802 18.4270
v  -75.7478 30.7299 18.9759
v  -75.7478 30.5775 19.4060
v  -75.7478 30.3235 19.7132
v  -75.7478 29.9679 19.8974
v  -75.7478 29.5106 19.9589
v  -75.7478 28.8082 19.9589
v  -75.7478 21.9667 19.9589
v  -77.0221 18.3683 9.7201
v  -77.0221 21.9667 9.7201
v  -77.0221 17.9112 9.7816
v  -77.0221 17.5556 9.9658
v  -77.0221 17.3016 10.2730
v  -77.0221 17.1492 10.7030
v  -77.0221 17.0983 11.2559
v  -77.0221 17.0983 18.4270
v  -77.0221 17.1492 18.9760
v  -77.0221 17.3016 19.4060
v  -77.0221 17.5556 19.7131
v  -77.0221 17.9112 19.8974
v  -77.0221 18.3685 19.9589
v  -77.0221 19.0702 19.9589
v  -77.0221 21.9667 19.9589
v  -77.0221 28.8082 19.9589
v  -77.0221 29.5107 19.9589
v  -77.0221 29.9679 19.8974
v  -77.0221 30.3235 19.7132
v  -77.0221 30.5775 19.4060
v  -77.0221 30.7299 18.9759
v  -77.0221 30.7802 18.4270
v  -77.0221 30.7808 11.2559
v  -77.0221 30.7300 10.7031
v  -77.0221 30.5775 10.2730
v  -77.0221 30.3235 9.9658
v  -77.0221 29.9679 9.7815
v  -77.0221 29.5112 9.7202
v  -77.0221 28.5910 9.7201
# 182 vertices

vn -0.0000 -0.0855 -0.9963
vn -0.0000 -0.0000 -1.0000
vn 1.0000 0.0000 -0.0000
vn -0.0000 -0.3707 -0.9288
vn -1.0000 0.0000 0.0000
vn -0.0000 0.0000 -1.0000
vn 0.0000 0.0000 1.0000
vn 0.0000 -0.0000 1.0000
vn 0.0000 -0.0855 0.9963
vn 0.0000 -0.3707 0.9288
vn 0.0000 -0.7131 0.7010
vn 0.0000 -0.9131 0.4077
vn 0.0000 -0.9855 0.1694
vn 0.0000 -0.9994 0.0359
vn -0.0000 -0.9994 -0.0356
vn 0.0000 -0.9994 -0.0356
vn 0.0000 -0.9856 -0.1692
vn 0.0000 -0.9131 -0.4077
vn -0.0000 -0.9131 -0.4077
vn -0.0000 -0.7131 -0.7010
vn -0.0000 0.0855 -0.9963
vn -0.0006 0.0049 1.0000
vn -0.0000 0.3707 -0.9288
vn -0.0000 0.7131 -0.7010
vn -0.0000 0.9131 -0.4077
vn -0.0004 0.9864 -0.1645
vn -0.0000 0.9856 -0.1692
vn -0.9687 0.2475 -0.0173
vn 0.0000 0.9994 0.0355
vn 0.0000 0.9856 0.1690
vn 0.0000 0.9131 0.4076
vn -0.0000 0.7132 0.7010
vn 0.0018 0.3606 0.9327
vn 0.0000 0.3707 0.9288
vn -0.3900 0.0189 0.9206
vn 0.5523 0.1294 0.8235
vn 0.2747 0.9615 -0.0051
vn -0.0000 -0.1413 -0.9900
vn -0.0000 -0.5342 -0.8454
vn -0.0000 0.0001 -1.0000
vn 0.0000 -0.1413 0.9900
vn 0.0000 -0.5342 0.8454
vn 0.0000 -0.8547 0.5191
vn 0.0000 -0.9656 0.2602
vn 0.0000 -0.9948 0.1022
vn 0.0000 -0.9998 0.0213
vn 0.0000 -0.9998 -0.0212
vn -0.0000 -0.9998 -0.0212
vn 0.0000 -0.9948 -0.1020
vn -0.0000 -0.9656 -0.2602
vn 0.0000 -0.9656 -0.2602
vn -0.0000 -0.8547 -0.5191
vn -0.0000 0.1413 -0.9900
vn -0.0000 0.5341 -0.8454
vn -0.0000 0.8547 -0.5191
vn -0.0000 0.9656 -0.2602
vn -0.0042 0.9959 -0.0907
vn -0.0000 0.9948 -0.1020
vn -0.3597 0.9323 -0.0381
vn -0.3597 0.9323 -0.0382
vn -0.0134 0.9999 -0.0014
vn 0.0000 0.9998 0.0211
vn 0.0000 0.9948 0.1019
vn 0.0000 0.9656 0.2602
vn 0.0000 0.8547 0.5191
vn 0.0000 0.5342 0.8454
vn -0.0336 0.1661 0.9855
vn -0.0479 0.1165 0.9920
vn -0.0199 0.0862 0.9961
vn -0.0163 0.0195 0.9997
vn 0.0216 0.9997 -0.0127
vn 0.0750 0.1759 0.9815
vn -0.0000 -0.9948 -0.1020
vn 0.0449 0.1054 0.9934
vn 0.0290 0.5082 0.8608
vn 0.0583 0.1953 0.9790
vn 0.0000 0.9998 0.0210
vn 0.0092 0.9995 -0.0296
vn 0.0174 0.9998 -0.0013
# 79 vertex normals

vt 0.0000 0.1600 0.0000
vt 1.0000 0.1600 0.0000
vt 1.0000 0.3558 0.0000
vt 0.0000 0.3558 0.0000
vt 0.5000 0.1441 0.0000
vt 0.5021 0.1001 0.0000
vt 0.5082 0.0641 0.0000
vt 0.5185 0.0360 0.0000
vt 0.5329 0.0160 0.0000
vt 0.5513 0.0040 0.0000
vt 0.5739 0.0000 0.0000
vt 0.9200 0.0000 0.0000
vt 0.9488 0.0064 0.0000
vt 0.9712 0.0256 0.0000
vt 0.9872 0.0576 0.0000
vt 0.9968 0.1024 0.0000
vt 0.9676 0.5002 0.0000
vt 0.5000 0.3558 0.0000
vt 1.0000 0.0546 0.0000
vt 0.0000 0.0546 0.0000
vt 0.0179 0.3479 0.0000
vt 0.0032 0.1024 0.0000
vt 0.0128 0.0576 0.0000
vt 0.0288 0.0256 0.0000
vt 0.0512 0.0064 0.0000
vt 0.0800 0.0000 0.0000
vt 0.4261 0.0000 0.0000
vt 0.4487 0.0040 0.0000
vt 0.4671 0.0160 0.0000
vt 0.4815 0.0360 0.0000
vt 0.4918 0.0641 0.0000
vt 0.4979 0.1001 0.0000
vt 1.0000 0.8400 0.0000
vt 0.0000 0.8400 0.0000
vt 0.0800 1.0000 0.0000
vt 0.0324 0.5002 0.0000
vt 0.9200 1.0000 0.0000
vt 0.9707 -1.3614 0.0000
vt 0.0294 -1.3614 0.0000
vt 0.9737 -3.2229 0.0000
vt 0.0263 -3.2229 0.0000
vt 0.9768 -5.0845 0.0000
vt 0.0233 -5.0845 0.0000
vt 0.9798 -6.9461 0.0000
vt 0.0202 -6.9461 0.0000
vt 0.9829 -8.8077 0.0000
vt 0.0172 -8.8077 0.0000
vt 0.9859 -10.6693 0.0000
vt 0.0141 -10.6693 0.0000
vt 0.4261 1.0000 0.0000
vt 1.0000 -0.3672 0.0000
vt 1.0000 -0.2618 0.0000
vt 0.0000 -0.2618 0.0000
vt 0.0000 -0.3672 0.0000
vt 1.0000 -0.1563 0.0000
vt 0.0000 -0.1563 0.0000
vt 1.0000 -0.0509 0.0000
vt 0.0000 -0.0509 0.0000
vt 0.9968 0.8976 0.0000
vt 0.9872 0.9424 0.0000
vt 0.9712 0.9744 0.0000
vt 0.9488 0.9936 0.0000
vt 0.9023 1.0000 0.0000
vt 0.5708 1.0000 0.0000
vt 0.5453 0.9942 0.0000
vt 0.5255 0.9769 0.0000
vt 0.5113 0.9481 0.0000
vt 0.5028 0.9078 0.0000
vt 0.5017 0.8873 0.0000
vt 0.5000 0.8559 0.0000
vt 0.5761 0.5740 0.0000
vt 0.5757 0.6631 0.0000
vt 0.5746 0.8715 0.0000
vt 0.5746 0.8798 0.0000
vt 0.5753 0.8853 0.0000
vt 0.5752 0.8988 0.0000
vt 0.5764 0.9078 0.0000
vt 0.5823 0.9196 0.0000
vt 0.5924 0.9283 0.0000
vt 0.6066 0.9338 0.0000
vt 0.6248 0.9358 0.0000
vt 0.7720 0.9367 0.0000
vt 0.7834 0.9358 0.0000
vt 0.8750 0.9362 0.0000
vt 0.8821 0.9357 0.0000
vt 0.8969 0.9313 0.0000
vt 0.9080 0.9237 0.0000
vt 0.9157 0.9128 0.0000
vt 0.9194 0.8984 0.0000
vt 0.9220 0.8696 0.0000
vt 0.9305 0.6642 0.0000
vt 0.9319 0.5528 0.0000
vt 0.9299 0.5387 0.0000
vt 0.9235 0.5277 0.0000
vt 0.9127 0.5198 0.0000
vt 0.8976 0.5151 0.0000
vt 0.8782 0.5135 0.0000
vt 0.6292 0.5131 0.0000
vt 0.6102 0.5147 0.0000
vt 0.5954 0.5194 0.0000
vt 0.5847 0.5273 0.0000
vt 0.5783 0.5383 0.0000
vt 0.5761 0.5524 0.0000
vt 0.4243 0.5740 0.0000
vt 0.4241 0.5524 0.0000
vt 0.4220 0.5383 0.0000
vt 0.4156 0.5273 0.0000
vt 0.4050 0.5194 0.0000
vt 0.3901 0.5147 0.0000
vt 0.3712 0.5131 0.0000
vt 0.1222 0.5135 0.0000
vt 0.1028 0.5151 0.0000
vt 0.0877 0.5198 0.0000
vt 0.0769 0.5277 0.0000
vt 0.0705 0.5387 0.0000
vt 0.0685 0.5528 0.0000
vt 0.0701 0.6642 0.0000
vt 0.0797 0.8696 0.0000
vt 0.0827 0.8984 0.0000
vt 0.0867 0.9128 0.0000
vt 0.0949 0.9237 0.0000
vt 0.1068 0.9313 0.0000
vt 0.1222 0.9357 0.0000
vt 0.1339 0.9365 0.0000
vt 0.2805 0.9360 0.0000
vt 0.2874 0.9366 0.0000
vt 0.3769 0.9358 0.0000
vt 0.3948 0.9338 0.0000
vt 0.4088 0.9283 0.0000
vt 0.4187 0.9196 0.0000
vt 0.4246 0.9078 0.0000
vt 0.4253 0.9022 0.0000
vt 0.4252 0.8938 0.0000
vt 0.4263 0.8849 0.0000
vt 0.4262 0.8715 0.0000
vt 0.4247 0.6631 0.0000
vt 0.4983 0.8873 0.0000
vt 0.4972 0.9078 0.0000
vt 0.4889 0.9481 0.0000
vt 0.4750 0.9769 0.0000
vt 0.4555 0.9942 0.0000
vt 0.4304 1.0000 0.0000
vt 0.1047 1.0000 0.0000
vt 0.0512 0.9936 0.0000
vt 0.0288 0.9744 0.0000
vt 0.0128 0.9424 0.0000
vt 0.0032 0.8976 0.0000
vt -0.0000 0.9454 0.0000
vt 1.0000 0.9454 0.0000
vt 0.9200 0.2237 0.0000
vt -0.0000 1.0509 0.0000
vt 1.0000 1.0509 0.0000
vt -0.0000 1.1563 0.0000
vt 1.0000 1.1563 0.0000
vt -0.0000 1.2618 0.0000
vt 1.0000 1.2618 0.0000
vt -0.0000 1.3672 0.0000
vt 1.0000 1.3672 0.0000
vt 0.9023 0.0000 0.0000
vt 0.5696 1.0000 0.0000
vt 0.5708 0.0000 0.0000
vt 0.0141 13.1184 0.0000
vt 0.0148 10.5643 0.0000
vt 0.9200 10.4340 0.0000
vt 0.9200 12.9865 0.0000
vt 0.0156 8.0102 0.0000
vt 0.9200 7.8814 0.0000
vt 0.0164 5.4561 0.0000
vt 0.9200 5.3289 0.0000
vt 0.0171 2.9020 0.0000
vt 0.9200 2.7763 0.0000
vt 0.9200 1.7696 0.0000
vt 0.0174 1.8934 0.0000
vt 0.8953 1.0000 0.0000
vt 0.3820 0.1600 0.0000
vt 0.3820 0.3558 0.0000
vt 0.3820 0.0546 0.0000
vt 0.3820 0.8400 0.0000
vt 0.6103 0.5002 0.0000
vt 0.5991 1.0000 0.0000
vt 0.6110 -1.3614 0.0000
vt 0.6118 -3.2229 0.0000
vt 0.6125 -5.0845 0.0000
vt 0.6132 -6.9461 0.0000
vt 0.6139 -8.8077 0.0000
vt 0.6147 -10.6693 0.0000
vt 0.0800 0.3820 0.0000
vt 0.4261 0.3820 0.0000
vt 0.3820 -0.2618 0.0000
vt 0.3820 -0.3672 0.0000
vt 0.3820 -0.1563 0.0000
vt 0.3820 -0.0509 0.0000
vt 0.3820 0.9454 0.0000
vt 0.3820 1.0509 0.0000
vt 0.3820 1.1563 0.0000
vt 0.3820 1.2618 0.0000
vt 0.3820 1.3672 0.0000
vt 0.7861 0.3820 0.0000
vt 0.7752 0.3820 0.0000
vt 0.5703 0.3820 0.0000
vt 0.5742 10.4838 0.0000
vt 0.5739 13.0369 0.0000
vt 0.5745 7.9306 0.0000
vt 0.5748 5.3775 0.0000
vt 0.5751 2.8243 0.0000
vt 0.5751 2.2022 0.0000
vt 0.5751 1.2469 0.0000
vt 0.5754 0.2712 0.0000
vt 0.9200 0.3820 0.0000
vt 0.9106 0.3820 0.0000
vt 0.5752 0.8616 0.0000
vt 0.6180 0.1600 0.0000
vt 0.6180 0.3558 0.0000
vt 0.6180 0.0546 0.0000
vt 0.6180 0.8400 0.0000
vt 0.6180 -0.0509 0.0000
vt 0.6180 -0.1563 0.0000
vt 0.6180 -0.2618 0.0000
vt 0.6180 -0.3672 0.0000
vt 0.0800 0.6180 0.0000
vt 0.4261 0.6180 0.0000
vt 0.3861 -8.8077 0.0000
vt 0.3854 -10.6693 0.0000
vt 0.3868 -6.9461 0.0000
vt 0.3875 -5.0845 0.0000
vt 0.3883 -3.2229 0.0000
vt 0.3890 -1.3614 0.0000
vt 0.3897 0.5002 0.0000
vt 0.4009 1.0000 0.0000
vt 0.3625 0.3005 0.0000
vt 0.3623 1.2555 0.0000
vt 0.3621 1.8788 0.0000
vt 0.3621 2.8540 0.0000
vt 0.3616 5.4075 0.0000
vt 0.3611 7.9610 0.0000
vt 0.3607 10.5145 0.0000
vt 0.3602 13.0680 0.0000
vt 0.9047 0.6180 0.0000
vt 0.7035 0.6180 0.0000
vt 0.9200 0.6180 0.0000
vt 0.6180 1.2618 0.0000
vt 0.6180 1.3672 0.0000
vt 0.6180 1.1563 0.0000
vt 0.6180 1.0509 0.0000
vt 0.6180 0.9454 0.0000
vt 0.3621 2.4694 0.0000
vt 0.6967 0.6180 0.0000
vt 0.5701 0.6180 0.0000
# 248 texture coords

g Door_small
usemtl White___ext__2_
s 1
f 1/1/1 2/2/1 3/3/2 4/4/2 
usemtl Metal___inside_doors__10_
s 2
f 5/5/3 6/6/3 7/7/3 8/8/3 9/9/3 10/10/3 11/11/3 12/12/3 13/13/3 14/14/3 15/15/3 16/16/3 1/17/3 4/3/3 17/18/3 
usemtl White___ext__2_
s 1
f 18/19/4 2/2/1 1/1/1 16/20/4 
s 2
f 2/21/5 18/22/5 19/23/5 20/24/5 21/25/5 22/26/5 23/27/5 24/28/5 25/29/5 26/30/5 27/31/5 28/32/5 29/5/5 30/18/5 3/4/5 
usemtl Green___ext__3_
s 1
f 3/3/2 31/33/6 32/34/6 4/4/2 
usemtl White___ext__2_
f 30/35/7 29/36/8 5/17/8 17/37/7 
f 6/38/9 5/17/8 29/36/8 28/39/9 
f 7/40/10 6/38/9 28/39/9 27/41/10 
f 8/42/11 7/40/10 27/41/10 26/43/11 
f 9/44/12 8/42/11 26/43/11 25/45/12 
f 10/46/13 9/44/12 25/45/12 24/47/13 
f 11/48/14 10/46/13 24/47/13 23/49/14 
f 23/50/14 22/35/15 12/26/16 11/27/14 
f 22/51/15 21/52/17 13/53/17 12/54/16 
f 21/52/17 20/55/18 14/56/19 13/53/17 
f 20/55/18 19/57/20 15/58/20 14/56/19 
f 19/57/20 18/19/4 16/20/4 15/58/20 
usemtl Metal___inside_doors__10_
s 2
f 4/3/3 32/33/3 33/59/3 34/60/3 35/61/3 36/62/3 37/37/3 38/63/3 39/64/3 40/65/3 41/66/3 42/67/3 43/68/3 44/69/3 45/70/3 17/18/3 46/71/3 47/72/3 48/73/3 49/74/3 50/75/3 51/76/3 52/77/3 53/78/3 54/79/3 55/80/3 56/81/3 57/82/3 58/83/3 59/84/3 60/85/3 61/86/3 62/87/3 63/88/3 64/89/3 65/90/3 66/91/3 67/92/3 68/93/3 69/94/3 70/95/3 71/96/3 72/97/3 73/98/3 74/99/3 75/100/3 76/101/3 77/102/3 78/103/3 46/71/3 17/18/3 
usemtl Green___ext__3_
f 30/18/5 79/104/5 80/105/5 81/106/5 82/107/5 83/108/5 84/109/5 85/110/5 86/111/5 87/112/5 88/113/5 89/114/5 90/115/5 91/116/5 92/117/5 93/118/5 94/119/5 95/120/5 96/121/5 97/122/5 98/123/5 99/124/5 100/125/5 101/126/5 102/127/5 103/128/5 104/129/5 105/130/5 106/131/5 107/132/5 108/133/5 109/134/5 110/135/5 111/136/5 79/104/5 30/18/5 112/70/5 113/137/5 114/138/5 115/139/5 116/140/5 117/141/5 118/142/5 119/143/5 120/35/5 121/144/5 122/145/5 123/146/5 124/147/5 31/34/5 3/4/5 
s 1
f 33/148/21 32/34/6 31/33/6 124/149/21 
f 112/21/7 30/35/7 17/37/7 45/150/22 
f 34/151/23 33/148/21 124/149/21 123/152/23 
f 35/153/24 34/151/23 123/152/23 122/154/24 
f 36/155/25 35/153/24 122/154/24 121/156/25 
f 37/157/26 36/155/25 121/156/25 120/158/27 
f 38/159/28 37/12/26 118/160/29 
f 39/161/29 38/159/28 118/160/29 
f 118/162/29 117/163/30 40/164/30 39/165/29 
f 117/163/30 116/166/31 41/167/31 40/164/30 
f 116/166/31 115/168/32 42/169/32 41/167/31 
f 115/168/32 114/170/33 43/171/34 42/169/32 
f 114/170/33 44/172/35 43/171/34 
f 114/170/33 45/150/22 44/172/35 
f 113/173/36 112/21/7 45/150/22 
f 114/170/33 113/173/36 45/150/22 
f 37/12/26 119/174/37 118/160/29 
f 37/12/26 120/37/27 119/174/37 
usemtl Glass__9_
s 4
f 125/1/38 67/175/38 66/176/2 126/4/2 
s 8
f 127/5/3 128/6/3 129/7/3 130/8/3 131/9/3 132/10/3 133/11/3 134/12/3 135/13/3 136/14/3 137/15/3 138/16/3 125/17/3 126/3/3 139/33/3 140/59/3 141/60/3 142/61/3 143/62/3 144/37/3 145/63/3 146/64/3 147/65/3 148/66/3 149/67/3 150/68/3 151/69/3 152/70/3 153/18/3 
s 4
f 67/175/38 125/1/38 138/20/39 68/177/39 
f 65/178/40 139/34/40 126/4/2 66/176/2 
f 46/179/8 127/17/8 153/37/7 47/180/7 
f 128/38/41 127/17/8 46/179/8 78/181/41 
f 129/40/42 128/38/41 78/181/41 77/182/42 
f 130/42/43 129/40/42 77/182/42 76/183/43 
f 131/44/44 130/42/43 76/183/43 75/184/44 
f 132/46/45 131/44/44 75/184/44 74/185/45 
f 133/48/46 132/46/45 74/185/45 73/186/46 
f 72/187/47 134/26/48 133/27/46 73/188/46 
f 71/189/49 135/53/49 134/54/48 72/190/47 
f 70/191/50 136/56/51 135/53/49 71/189/49 
f 69/192/52 137/58/52 136/56/51 70/191/50 
f 68/177/39 138/20/39 137/58/52 69/192/52 
f 140/148/53 139/34/40 65/178/40 64/193/53 
f 141/151/54 140/148/53 64/193/53 63/194/54 
f 142/153/55 141/151/54 63/194/54 62/195/55 
f 143/155/56 142/153/55 62/195/55 61/196/56 
f 144/157/57 143/155/56 61/196/56 60/197/58 
f 145/159/59 144/12/57 58/198/60 57/199/61 
f 146/161/62 145/159/59 57/199/61 56/200/62 
f 55/201/63 147/164/63 146/165/62 56/202/62 
f 54/203/64 148/167/64 147/164/63 55/201/63 
f 53/204/65 149/169/65 148/167/64 54/203/64 
f 52/205/66 150/171/66 149/169/65 53/204/65 
f 51/206/67 151/172/68 150/171/66 52/205/66 
f 50/207/69 152/150/70 151/172/68 51/206/67 
f 47/180/7 153/37/7 152/150/70 48/208/7 
f 144/12/57 60/209/58 59/210/71 
f 144/12/57 59/210/71 58/198/60 
f 49/211/72 152/150/70 50/207/69 
f 48/208/7 152/150/70 49/211/72 
f 91/212/38 154/2/38 155/3/2 92/213/2 
f 156/19/39 154/2/38 91/212/38 90/214/39 
s 8
f 154/21/5 156/22/5 157/23/5 158/24/5 159/25/5 160/26/5 161/27/5 162/28/5 163/29/5 164/30/5 165/31/5 166/32/5 167/5/5 168/18/5 169/70/5 170/137/5 171/138/5 172/139/5 173/140/5 174/141/5 175/142/5 176/143/5 177/35/5 178/144/5 179/145/5 180/146/5 181/147/5 182/34/5 155/4/5 
s 4
f 155/3/2 182/33/40 93/215/40 92/213/2 
f 157/57/52 156/19/39 90/214/39 89/216/52 
f 158/55/50 157/57/52 89/216/52 88/217/50 
f 159/52/73 158/55/50 88/217/50 87/218/73 
f 160/51/48 159/52/73 87/218/73 86/219/48 
f 161/50/46 160/35/48 86/220/48 85/221/46 
f 84/222/45 162/47/45 161/49/46 85/223/46 
f 83/224/44 163/45/44 162/47/45 84/222/45 
f 82/225/43 164/43/43 163/45/44 83/224/44 
f 81/226/42 165/41/42 164/43/43 82/225/43 
f 80/227/41 166/39/41 165/41/42 81/226/42 
f 79/228/8 167/36/8 166/39/41 80/227/41 
f 168/35/7 167/36/8 79/228/8 111/229/7 
f 169/21/7 168/35/7 111/229/7 110/230/7 
f 170/173/72 169/21/7 110/230/7 109/231/74 
f 171/170/75 170/173/72 109/231/74 108/232/76 
f 172/168/65 171/170/75 106/233/66 105/234/65 
f 173/166/64 172/168/65 105/234/65 104/235/64 
f 174/163/63 173/166/64 104/235/64 103/236/63 
f 175/162/77 174/163/63 103/236/63 102/237/62 
f 99/238/78 176/174/71 175/160/77 100/239/79 
f 98/240/58 177/37/58 176/174/71 99/238/78 
f 97/241/56 178/156/56 177/158/58 98/242/58 
f 96/243/55 179/154/55 178/156/56 97/241/56 
f 95/244/54 180/152/54 179/154/55 96/243/55 
f 94/245/53 181/149/53 180/152/54 95/244/54 
f 93/215/40 182/33/40 181/149/53 94/245/53 
f 171/170/75 108/232/76 107/246/68 
f 171/170/75 107/246/68 106/233/66 
f 101/247/59 175/160/77 102/248/62 
f 100/239/79 175/160/77 101/247/59 
# 89 polygons - 16 triangles

